<!--?xml version="1.0" encoding="utf-8"?-->
<!-- Generator: Adobe Illustrator 18.1.1, SVG Export Plug-In . SVG Version: 6.00 Build 0)  -->

<svg version="1.1" id="_x32_" xmlns="http://www.w3.org/2000/svg" xmlns:xlink="http://www.w3.org/1999/xlink" x="0px" y="0px" viewBox="0 0 512 512" style="width: 128px; height: 128px; opacity: 1;" xml:space="preserve">
<style type="text/css">
	.st0{fill:#4B4B4B;}
</style>
<g>
	<path class="st0" d="M201.897,348.567c52.367,0,94.824-42.458,94.824-94.832c0-52.359-42.458-94.832-94.824-94.832
		c-52.374,0-94.824,42.473-94.824,94.832C107.072,306.109,149.522,348.567,201.897,348.567z" style="fill: rgb(75, 75, 75);"></path>
	<polygon class="st0" points="184.067,385.772 201.897,407.961 219.726,385.772 217.325,357.996 186.468,357.996 	" style="fill: rgb(75, 75, 75);"></polygon>
	<path class="st0" d="M282.194,362.888c-4.168-4.094-11.401-2.395-13.944-0.946c-6.968,3.96-14.394,7.308-22.16,9.99l-44.194,55.041
		l-44.194-55.041c-7.766-2.682-15.192-6.03-22.16-9.99c-2.542-1.449-9.776-3.148-13.944,0.946
		c-15.406,15.118-36.908,47.423-41.143,70.787C70.053,491.206,136.754,512,201.897,512s131.844-20.794,121.44-78.325
		C319.103,410.31,297.6,378.006,282.194,362.888z M201.897,476.946c-7.049,0-12.768-5.72-12.768-12.768
		c0-7.05,5.72-12.768,12.768-12.768s12.768,5.719,12.768,12.768C214.665,471.226,208.945,476.946,201.897,476.946z" style="fill: rgb(75, 75, 75);"></path>
	<path class="st0" d="M361.997,0h-85.744c-39.007,0-70.625,31.618-70.625,70.618c0,39.007,31.618,70.625,70.625,70.625h67.463
		c10.086,0,13.242,4.684,13.242,8.52c0,5.675-2.949,10.995-10.086,16.078c-4.419,3.148-0.946,5.668,2.52,5.668
		c45.081,0,83.231-49.182,83.231-100.891C432.622,31.618,401.003,0,361.997,0z M265.502,84.029c-7.41,0-13.411-6-13.411-13.411
		c0-7.412,6-13.412,13.411-13.412c7.404,0,13.404,6,13.404,13.412C278.906,78.029,272.906,84.029,265.502,84.029z M319.125,84.029
		c-7.405,0-13.412-6-13.412-13.411c0-7.412,6.007-13.412,13.412-13.412c7.404,0,13.411,6,13.411,13.412
		C332.536,78.029,326.529,84.029,319.125,84.029z M372.748,84.029c-7.404,0-13.404-6-13.404-13.411c0-7.412,6-13.412,13.404-13.412
		c7.411,0,13.411,6,13.411,13.412C386.159,78.029,380.159,84.029,372.748,84.029z" style="fill: rgb(75, 75, 75);"></path>
</g>
</svg>
