<!--?xml version="1.0" encoding="utf-8"?-->
<!-- Generator: Adobe Illustrator 18.1.1, SVG Export Plug-In . SVG Version: 6.00 Build 0)  -->

<svg version="1.1" id="_x32_" xmlns="http://www.w3.org/2000/svg" xmlns:xlink="http://www.w3.org/1999/xlink" x="0px" y="0px" viewBox="0 0 512 512" style="width: 128px; height: 128px; opacity: 1;" xml:space="preserve">
<style type="text/css">
	.st0{fill:#4B4B4B;}
</style>
<g>
	<path class="st0" d="M475.609,295.505L434.2,207.72c0.111-2.619,0.206-5.246,0.206-7.904C434.406,89.476,344.938,0,234.583,0
		C124.212,0,34.744,89.476,34.744,199.816c0,51.503,15.221,97.959,53.488,147.153v90.769c0,6.897,4.11,13.126,10.459,15.816
		l184.681,57.075c5.302,2.254,11.38,1.706,16.174-1.468c4.809-3.182,7.697-8.563,7.697-14.309v-59.86
		c0-9.467,7.698-17.18,17.158-17.18h84.77c9.491,0,17.157-7.682,17.157-17.15v-51.606c0-6.586,3.762-12.586,9.682-15.459
		l31.568-15.332C476.053,314.146,479.624,304.004,475.609,295.505z M321.273,125.64c-5.285,0-10.19-1.572-14.3-4.246l-35.06,26.188
		c1.698,4.182,2.651,8.753,2.651,13.546c0,2.404-0.238,4.753-0.699,7.031l31.251,15.182c3.476-2.682,7.809-4.286,12.522-4.286
		c11.316,0,20.49,9.174,20.49,20.49c0,11.325-9.174,20.498-20.49,20.498c-11.269,0-20.394-9.087-20.49-20.324l-31.267-15.182
		c-6.603,7.714-16.396,12.618-27.331,12.618c-2.38,0-4.698-0.246-6.951-0.691l-12.396,25.673c4.571,4.738,7.38,11.157,7.38,18.244
		c0,14.53-11.777,26.307-26.3,26.307s-26.314-11.777-26.314-26.307c0-14.522,11.792-26.299,26.314-26.299
		c0.842,0,1.683,0.047,2.524,0.127l12.38-25.681c-6.253-5.34-10.65-12.792-12.11-21.26l-50.567-4.285
		c-4.444,10.42-14.761,17.72-26.807,17.72c-16.094,0-29.124-13.046-29.124-29.14c0-16.086,13.03-29.125,29.124-29.125
		c13.761,0,25.268,9.555,28.315,22.387l50.598,4.285c1.588-4.468,4.016-8.531,7.127-11.99l-28.505-43.092
		c-1.127,0.183-2.286,0.302-3.46,0.302c-12.158,0-22.014-9.856-22.014-22.022c0-12.158,9.856-22.022,22.014-22.022
		c12.173,0,22.029,9.864,22.029,22.022c0,4.293-1.254,8.285-3.38,11.674l28.49,43.076c3.65-1.246,7.555-1.953,11.634-1.953
		c8.491,0,16.284,2.96,22.442,7.881l35.061-26.188c-0.698-2.373-1.096-4.864-1.096-7.467c0-14.522,11.777-26.3,26.315-26.3
		c14.522,0,26.299,11.778,26.299,26.3C347.573,113.863,335.796,125.64,321.273,125.64z" style="fill: rgb(75, 75, 75);"></path>
</g>
</svg>
